<svg version="1.1" xmlns="http://www.w3.org/2000/svg" style="display: block;" viewBox="0 0 1503 2048" width="383" height="522" preserveAspectRatio="none">
<path transform="translate(0,0)" fill="rgb(255,255,255)" d="M 0 0 L 1503 0 L 1503 2048 L 788.162 2048 L 753.527 2048 L 219.318 2048 L 184.501 2048 L 0 2048 L 0 0 z"/>
<path transform="translate(0,0)" fill="rgb(0,88,145)" d="M 753.527 2048 C 748.502 2041.86 750.165 2016.77 750.177 2007.79 L 750.275 1947.55 C 750.348 1907.79 749.075 1867.97 751.607 1828.37 C 758.948 1713.58 900.054 1670.45 972.094 1756.94 C 994.502 1783.9 1003.9 1822.81 999.567 1857.87 C 995.866 1889.41 979.847 1918.2 955.003 1937.97 C 928.958 1958.4 895.713 1967.34 862.934 1962.72 C 835.25 1959.04 813.545 1947.22 792.893 1929.17 L 793.039 2004.59 C 793.058 2017 793.267 2029.46 792.709 2041.85 C 792.583 2044.65 790.359 2046.42 788.162 2048 L 753.527 2048 z"/>
<path transform="translate(0,0)" fill="rgb(255,255,255)" d="M 870.23 1755.59 C 916.114 1752.88 955.53 1787.83 958.34 1833.7 C 961.149 1879.58 926.291 1919.08 880.42 1921.99 C 834.404 1924.91 794.758 1889.92 791.94 1843.89 C 789.121 1797.87 824.202 1758.3 870.23 1755.59 z"/>
<path transform="translate(0,0)" fill="rgb(0,88,145)" d="M 184.501 2048 C 180.124 2042.25 181.498 2021.08 181.504 2013.27 L 181.567 1960.68 L 181.619 1887.22 C 181.506 1828.13 179.724 1774.41 233.329 1734.76 C 286.625 1695.34 366.999 1706.69 406.242 1760.5 C 427.189 1789.05 435.61 1826.11 430.341 1860.92 C 425.427 1892.82 408.131 1921.48 382.209 1940.7 C 355.834 1959.74 322.967 1967.5 290.863 1962.26 C 264.66 1958.08 243.866 1946.67 224.281 1929.35 C 224.49 1945.1 225.692 2036.37 222.861 2044.93 C 221.582 2046.16 220.796 2047.02 219.318 2048 L 184.501 2048 z"/>
<path transform="translate(0,0)" fill="rgb(255,255,255)" d="M 301.611 1755.69 C 347.389 1753.16 386.592 1788.13 389.291 1833.9 C 391.99 1879.67 357.17 1919 311.412 1921.87 C 265.408 1924.76 225.817 1889.71 223.103 1843.7 C 220.389 1797.68 255.586 1758.23 301.611 1755.69 z"/>
<path transform="translate(0,0)" fill="rgb(235,29,57)" d="M 724.89 55.5635 C 749.874 54.022 773.944 54.9439 798.835 56.629 C 896.467 62.7293 991.647 89.7497 1077.92 135.859 C 1114.52 155.43 1137.55 171.595 1170.76 194.767 C 1167.38 202.025 1162.25 221.089 1159.49 229.648 C 1060.32 531.667 864.955 792.891 603.276 973.377 C 538.15 1018.29 482.784 1048.6 413.469 1084.12 C 341.585 1118.37 267.15 1146.99 190.836 1169.73 C 90.7493 1030.25 44.8609 874.953 56.8922 703.297 C 67.8764 546.793 131.485 398.609 237.373 282.842 C 362.727 144.639 538.443 62.7208 724.89 55.5635 z"/>
<path transform="translate(0,0)" fill="rgb(0,88,145)" d="M 1339.15 377.881 C 1342.78 381.001 1351.46 396.441 1354.12 401.038 C 1384.37 453.288 1407.96 509.122 1424.34 567.237 C 1473.94 746.287 1450.56 937.698 1359.32 1099.55 C 1267.32 1262.67 1113.71 1382.06 932.912 1430.93 C 875.937 1446.34 817.166 1454.11 758.143 1454.03 C 628.127 1454.46 517.148 1424.59 403.626 1360.61 C 356.717 1333.64 309.311 1296.89 270.343 1259.6 C 251.795 1241.86 234.643 1222.52 217.198 1203.68 C 252.759 1191.15 294.67 1180.6 331.171 1170.16 C 512.161 1118.41 698.65 1087.63 880.292 1038.4 C 1047.62 993.041 1203.82 918.822 1293.98 762.917 C 1352.34 661.79 1372.79 543.194 1351.68 428.362 C 1348.3 409.689 1344 396.012 1339.15 377.881 z"/>
<path transform="translate(0,0)" fill="rgb(0,88,145)" d="M 579.993 1711.35 C 642.439 1707.55 689.239 1740.65 708.789 1800.61 C 711.872 1810.06 717.762 1831.59 713.528 1840.69 C 710.315 1847.6 696.455 1852.71 689.741 1854.9 C 659.383 1865.94 625.774 1868.02 593.925 1862.75 C 561.819 1857.44 545.36 1857.66 513.859 1866.96 C 517.179 1877.26 522.678 1886.73 529.982 1894.72 C 544.557 1910.77 567.977 1921.47 589.52 1922.07 C 614.577 1922.78 632.695 1913.05 650.371 1896.8 C 652.451 1894.71 654.7 1891.65 656.578 1889.28 C 672.746 1896.98 682.612 1900.35 697.101 1911.27 C 691.341 1918.58 685.41 1925.29 678.51 1931.55 C 634.75 1971.2 560.159 1974.09 513.946 1937.37 C 488.462 1917.12 472.102 1887.55 468.488 1855.21 C 460.622 1780.78 503.788 1719.46 579.993 1711.35 z"/>
<path transform="translate(0,0)" fill="rgb(255,255,255)" d="M 580.622 1753.31 C 626.885 1748.17 657.371 1777.5 673.056 1818.1 C 642.315 1824.56 624.936 1823.97 593.03 1821.9 C 555.418 1818.64 543.123 1819.55 506.944 1829.15 C 512.603 1789.22 541.03 1760.39 580.622 1753.31 z"/>
<path transform="translate(0,0)" fill="rgb(0,88,145)" d="M 1120.36 1710.41 C 1151.93 1707.53 1196.23 1719.4 1217.54 1743.68 C 1209.6 1754.89 1197.81 1763.49 1186.53 1771.16 C 1165.86 1757.19 1156.82 1751.3 1131.3 1749.64 C 1112.45 1748.41 1081.81 1758.42 1082.71 1781.41 C 1086.04 1815.57 1145.4 1817.42 1172.82 1825.05 C 1225.98 1839.83 1246.78 1896.14 1206.53 1937.12 C 1184.4 1959.65 1151.06 1963.56 1119.47 1962.88 C 1085.3 1961.74 1050.41 1944.25 1027.6 1918.87 C 1038.4 1909.53 1049.37 1900.38 1060.51 1891.44 C 1082.12 1910.44 1103.98 1922.61 1133.66 1922.19 C 1151.9 1921.94 1183.31 1909.75 1181.02 1887.06 C 1178.2 1859.24 1127.59 1856.42 1105.75 1850.91 C 1048.32 1836.42 1014.85 1791.93 1055.39 1739.1 C 1069.44 1720.96 1096.49 1711.9 1120.36 1710.41 z"/>
<path transform="translate(0,0)" fill="rgb(0,88,145)" d="M 1280.81 1719.43 C 1293.62 1719.05 1306.29 1718.26 1318.88 1720.78 C 1321.27 1782.09 1318.35 1889.2 1318.6 1954.63 C 1318.61 1956.19 1316.25 1957.12 1314.85 1957.88 C 1307.05 1958.04 1283.55 1959.34 1277.64 1956.45 C 1275.61 1949.85 1276.2 1933.57 1276.21 1925.81 C 1276.26 1861.47 1276.23 1797.04 1276.29 1732.69 C 1276.29 1725.78 1274.53 1722.2 1280.81 1719.43 z"/>
<path transform="translate(0,0)" fill="rgb(0,88,145)" d="M 1290.87 1638.72 C 1306.28 1634.86 1321.89 1644.29 1325.66 1659.73 C 1329.42 1675.17 1319.9 1690.72 1304.43 1694.39 C 1289.11 1698.02 1273.72 1688.6 1269.99 1673.3 C 1266.26 1657.99 1275.58 1642.55 1290.87 1638.72 z"/>
</svg>