<?xml version="1.0" encoding="UTF-8"?>
<!DOCTYPE svg PUBLIC "-//W3C//DTD SVG 1.1//EN" "http://www.w3.org/Graphics/SVG/1.1/DTD/svg11.dtd">
<!-- Creator: CorelDRAW 2020 (64-Bit) -->
<svg xmlns="http://www.w3.org/2000/svg" xml:space="preserve" width="210mm" height="297mm" version="1.1" style="shape-rendering:geometricPrecision; text-rendering:geometricPrecision; image-rendering:optimizeQuality; fill-rule:evenodd; clip-rule:evenodd"
viewBox="0 0 21000 29700"
 xmlns:xlink="http://www.w3.org/1999/xlink"
 xmlns:xodm="http://www.corel.com/coreldraw/odm/2003">
 <defs>
  <style type="text/css">
   <![CDATA[
    .fil14 {fill:#855935;fill-rule:nonzero}
    .fil18 {fill:#907B48;fill-rule:nonzero}
    .fil19 {fill:#977744;fill-rule:nonzero}
    .fil5 {fill:#A36A49;fill-rule:nonzero}
    .fil7 {fill:#B98658;fill-rule:nonzero}
    .fil2 {fill:#BF7648;fill-rule:nonzero}
    .fil10 {fill:#CE6E4C;fill-rule:nonzero}
    .fil4 {fill:#D48D63;fill-rule:nonzero}
    .fil13 {fill:#D4A476;fill-rule:nonzero}
    .fil29 {fill:#DDCD85;fill-rule:nonzero}
    .fil15 {fill:#E56C5C;fill-rule:nonzero}
    .fil1 {fill:#E6D18E;fill-rule:nonzero}
    .fil25 {fill:#E8BD78;fill-rule:nonzero}
    .fil0 {fill:#FEFEFE;fill-rule:nonzero}
    .fil26 {fill:#FFF2E2;fill-rule:nonzero}
    .fil20 {fill:url(#id0);fill-rule:nonzero}
    .fil11 {fill:url(#id1);fill-rule:nonzero}
    .fil9 {fill:url(#id2);fill-rule:nonzero}
    .fil6 {fill:url(#id3);fill-rule:nonzero}
    .fil16 {fill:url(#id4);fill-rule:nonzero}
    .fil12 {fill:url(#id5);fill-rule:nonzero}
    .fil8 {fill:url(#id6);fill-rule:nonzero}
    .fil27 {fill:url(#id7);fill-rule:nonzero}
    .fil28 {fill:url(#id8);fill-rule:nonzero}
    .fil23 {fill:url(#id9);fill-rule:nonzero}
    .fil17 {fill:url(#id10);fill-rule:nonzero}
    .fil3 {fill:url(#id11);fill-rule:nonzero}
    .fil24 {fill:url(#id12);fill-rule:nonzero}
    .fil22 {fill:url(#id13);fill-rule:nonzero}
    .fil21 {fill:url(#id14);fill-rule:nonzero}
   ]]>
  </style>
  <linearGradient id="id0" gradientUnits="userSpaceOnUse" x1="7216.07" y1="14325.56" x2="7362.32" y2="13510.23">
   <stop offset="0" style="stop-opacity:1; stop-color:#A07247"/>
   <stop offset="1" style="stop-opacity:1; stop-color:#F4A26C"/>
  </linearGradient>
  <linearGradient id="id1" gradientUnits="userSpaceOnUse" x1="15518.48" y1="14140.53" x2="15490.35" y2="14146.15">
   <stop offset="0" style="stop-opacity:1; stop-color:#A86C2F"/>
   <stop offset="1" style="stop-opacity:1; stop-color:#CD7435"/>
  </linearGradient>
  <linearGradient id="id2" gradientUnits="userSpaceOnUse" x1="6113.58" y1="12233.18" x2="6136.09" y2="12272.57">
   <stop offset="0" style="stop-opacity:1; stop-color:#91714B"/>
   <stop offset="1" style="stop-opacity:1; stop-color:#E18C71"/>
  </linearGradient>
  <linearGradient id="id3" gradientUnits="userSpaceOnUse" x1="15124.73" y1="16025.36" x2="15203.48" y2="16070.37">
   <stop offset="0" style="stop-opacity:1; stop-color:#AB653F"/>
   <stop offset="1" style="stop-opacity:1; stop-color:#BE9670"/>
  </linearGradient>
  <linearGradient id="id4" gradientUnits="userSpaceOnUse" x1="11232.27" y1="16542.98" x2="10996.02" y2="16475.47">
   <stop offset="0" style="stop-opacity:1; stop-color:#B06D37"/>
   <stop offset="1" style="stop-opacity:1; stop-color:#AA906A"/>
  </linearGradient>
  <linearGradient id="id5" gradientUnits="userSpaceOnUse" x1="5354.22" y1="12885.84" x2="5016.72" y2="13043.38">
   <stop offset="0" style="stop-opacity:1; stop-color:#B49164"/>
   <stop offset="1" style="stop-opacity:1; stop-color:#E3B68B"/>
  </linearGradient>
  <linearGradient id="id6" gradientUnits="userSpaceOnUse" x1="14247.25" y1="16977.3" x2="14275.37" y2="17021.37">
   <stop offset="0" style="stop-opacity:1; stop-color:#9D7B53"/>
   <stop offset="1" style="stop-opacity:1; stop-color:#C4A581"/>
  </linearGradient>
  <linearGradient id="id7" gradientUnits="userSpaceOnUse" x1="9982.07" y1="14614.1" x2="9932.04" y2="16860.72">
   <stop offset="0" style="stop-opacity:1; stop-color:#B8723E"/>
   <stop offset="1" style="stop-opacity:1; stop-color:#947946"/>
  </linearGradient>
  <linearGradient id="id8" gradientUnits="userSpaceOnUse" x1="9984.5" y1="14151.18" x2="9922.69" y2="12671.09">
   <stop offset="0" style="stop-opacity:1; stop-color:#C7733F"/>
   <stop offset="1" style="stop-opacity:1; stop-color:#A6794B"/>
  </linearGradient>
  <linearGradient id="id9" gradientUnits="userSpaceOnUse" x1="9930.31" y1="11788.3" x2="9941.23" y2="14011.28">
   <stop offset="0" style="stop-opacity:1; stop-color:#957944"/>
   <stop offset="1" style="stop-opacity:1; stop-color:#A87648"/>
  </linearGradient>
  <linearGradient id="id10" gradientUnits="userSpaceOnUse" x1="13656.62" y1="13364.08" x2="13718.5" y2="13425.97">
   <stop offset="0" style="stop-opacity:1; stop-color:#AC7B4D"/>
   <stop offset="1" style="stop-opacity:1; stop-color:#C79466"/>
  </linearGradient>
  <linearGradient id="id11" gradientUnits="userSpaceOnUse" x1="9781.05" y1="18126.09" x2="9786.67" y2="18265.57">
   <stop offset="0" style="stop-opacity:1; stop-color:#CF7248"/>
   <stop offset="1" style="stop-opacity:1; stop-color:#D99763"/>
  </linearGradient>
  <linearGradient id="id12" gradientUnits="userSpaceOnUse" x1="9404.17" y1="12137.53" x2="9376.05" y2="12092.52">
   <stop offset="0" style="stop-opacity:1; stop-color:#BC9B6F"/>
   <stop offset="1" style="stop-opacity:1; stop-color:#CB8F7B"/>
  </linearGradient>
  <linearGradient id="id13" gradientUnits="userSpaceOnUse" x1="9016.05" y1="16897.45" x2="8942.93" y2="16959.33">
   <stop offset="0" style="stop-opacity:1; stop-color:#B56617"/>
   <stop offset="1" style="stop-opacity:1; stop-color:#C6865D"/>
  </linearGradient>
  <linearGradient id="id14" gradientUnits="userSpaceOnUse" x1="8516.54" y1="15473.97" x2="8483.32" y2="15479.59">
   <stop offset="0" style="stop-opacity:1; stop-color:#AC652F"/>
   <stop offset="1" style="stop-opacity:1; stop-color:#CE805C"/>
  </linearGradient>
 </defs>
 <g id="Слой_x0020_1">
  <metadata id="CorelCorpID_0Corel-Layer"/>
  <polygon class="fil0" points="4234.85,11164.17 15754.73,11164.17 15754.73,18394.06 4234.85,18394.06 "/>
  <path class="fil1" d="M9426.87 11266.98c170.17,-24.11 314.92,-24.54 485.63,-24.78 355.67,-0.13 710.94,21.43 1063.97,64.56 35.82,4.02 195.52,18.46 216.39,29.32 64.4,5.14 136.85,20.35 201.59,30.29 116.1,17.83 259.15,37.26 372.32,67.78 50.51,6.86 125.55,28.13 178.19,39.5 47.93,12.23 131.35,30.32 175.17,45.53 64.91,12.47 147.48,41.27 197.44,49.89 59.28,21.9 321.01,97.3 351.67,115.35 69.29,21.97 128.24,43.2 195.91,68.76 60.86,22.9 129.15,44.45 188.04,68.28 429.36,173.07 836.09,397.47 1211.5,668.29 109.13,78.87 184.27,129.24 281.47,224.5 76.39,74.9 162.12,116.37 232.37,208.64l18.73 24.11c47.76,55.1 116.72,117.71 156.43,174.61 83.87,120.04 177.75,234.76 261,354.26 81.62,114.9 121.22,190.64 173.3,321.67 5.63,14.16 30.1,65.53 32.46,76.94 66.15,119.84 101.19,313.34 140.46,447.32 11.64,66.99 42.3,198.23 40.83,257.94 -3.54,142.54 17.67,437.43 -37.69,562.14 -9.05,88.75 -74.24,309.46 -107.26,397.84 -62.44,148.33 -124.82,291.46 -211.95,427.84 -83.08,130.05 -174.6,262.68 -271.97,382.23 -41.4,50.43 -93.54,92.62 -139.38,138.15 -69.87,78.97 -181.63,181.1 -259.71,260.46 -122.56,110.7 -263.3,199.38 -386.26,312.07 -19.24,17.61 -199.24,133.18 -215.44,136.78 -180.28,99.08 -347.73,217.79 -537.4,299.71 -28.41,12.27 -82.63,41.3 -109.8,49.29 -70.65,40.73 -380.93,172.23 -456.3,186.4 -391.21,148.43 -794.02,264.1 -1204.3,345.91 -119.98,23.24 -257.06,42.99 -378.95,61.5 -130.61,19.86 -326.02,53.11 -456.47,55.98 -143.77,34.77 -267.91,17.22 -413.77,23.07 -129.43,5.18 -263.75,24.7 -393.46,26.11 -161.49,6.13 -325.76,-19.36 -486.22,-23.41 -183.58,-4.62 -350.87,-5.46 -533.31,-34.49 -94.56,-15.02 -185.03,-22.96 -280.81,-41.3 -31.39,-2.13 -265.66,-37.36 -290.28,-43.94 -65.78,-3.21 -118.67,-17.61 -183.15,-29.99 -147.15,-28.19 -291.18,-64.81 -435.67,-104.2 -80.19,-21.89 -165.91,-37.58 -245.04,-60.6 -505.18,-150.28 -991.86,-356.93 -1450.83,-616.14 -65.66,-37.47 -152.17,-83.5 -214.28,-124.23 -243.4,-162.88 -473.95,-344.22 -689.61,-542.39 -54.11,-44.75 -207.28,-211.58 -247.73,-269.46 -168.29,-235.24 -299.67,-392.04 -422.2,-666.06 -190.94,-427.06 -228.66,-759.75 -201.77,-1223.72 1.48,-86.95 123.08,-505.75 165.7,-592.13 41.71,-143.47 149.93,-286.96 220.41,-416 83.79,-153.44 171.8,-248.93 287.28,-380.34 24.04,-50.08 230.48,-240.1 283.97,-285.68 65.33,-66.59 178.22,-145.39 253.18,-205.98 56.43,-45.6 113.4,-96.7 172.38,-137.9 84.11,-81.54 193.55,-128.91 290.16,-187.93 152.28,-93.03 300.89,-187.44 466.11,-257.37 238.78,-122.31 483.16,-215.42 735.8,-304.34 78.08,-27.48 157.59,-47.82 237.57,-76.65 89.72,-33.06 185.23,-60.1 277.62,-85.01 62.16,-16.76 124.41,-27.79 185.85,-48.12 76.51,-19.43 159.35,-34.94 237.25,-53.1 56.03,-16.03 290.24,-55.89 354.17,-64.3 148.88,-33.92 330.49,-50.74 482.8,-64.6 59.3,-5.39 125.09,-21.85 183.97,-25.05 85.67,-4.65 165.94,-5.67 251.92,-13.81z"/>
  <path class="fil2" d="M5235.82 16653.87c-9.97,-34.05 -40.18,-48 -43.31,-69.06 33.66,20.35 54.54,61.28 72.5,62.13 67.77,55.09 127.36,120.92 193.81,175.05 241.75,196.98 509.3,370 778.07,527.48 102.45,60.03 216.1,106.84 323.03,157.37 322.17,155.62 655.88,286.04 998.14,390.24 211.04,62.79 432.84,110.67 647.57,158.95 108.05,24.3 205.89,46.69 316.49,59.92 -26.02,17.39 -30.34,11.31 -58.66,11.2l-4.73 0 -4.33 4.27c-65.78,-3.21 -118.67,-17.61 -183.15,-29.99 -147.15,-28.19 -291.18,-64.81 -435.67,-104.2 -80.19,-21.89 -165.91,-37.58 -245.04,-60.6 -505.18,-150.28 -991.86,-356.93 -1450.83,-616.14 -65.66,-37.47 -152.17,-83.5 -214.28,-124.23 -243.4,-162.88 -473.95,-344.22 -689.61,-542.39z"/>
  <path class="fil3" d="M8765.99 18152.35c94.44,-0.84 182.16,15.42 275.48,26.78 56.29,6.81 118.55,5.18 172.62,11.65 124.5,14.97 226.9,24.42 352.29,26.05 334.02,2.81 668.09,1.69 1002.04,-3.43 95.91,-1.97 179.95,-31.34 278.21,-27.63 -26.77,6.64 -22.11,1.58 -39.77,19.19 3.15,15.69 -0.79,9.23 13.62,18.96l31.77 1.46c-143.77,34.77 -267.91,17.22 -413.77,23.07 -129.43,5.18 -263.75,24.7 -393.46,26.11 -161.49,6.13 -325.76,-19.36 -486.22,-23.41 -183.58,-4.62 -350.87,-5.46 -533.31,-34.49 -94.56,-15.02 -185.03,-22.96 -280.81,-41.3 18.83,-0.73 23.85,-0.95 41.95,-5.85l-0.98 -7.82 -19.66 -9.34z"/>
  <path class="fil4" d="M9450.26 11296.32c170.17,-24.11 314.92,-24.54 485.63,-24.78 355.67,-0.13 710.94,21.43 1063.97,64.56 35.82,4.02 195.52,18.46 216.39,29.32 17.55,11.55 20.41,11.93 41.34,14.77l-2.98 8.57 -13.22 -3.63 -3.26 5.32c13.44,8.92 18.95,2.5 36.73,10.62 -75.71,-2.1 -161.16,-17.62 -236.92,-26.14 -51.14,-5.76 -102.94,-8.32 -153.79,-14.6 -36.06,-4.44 -72.56,-25.39 -109.74,-25.85 -152.66,-1.86 -305.16,2.24 -457.59,3.69 -121.39,1.15 -248.17,-10.18 -370.29,-6.23 -155.38,5.02 -300.34,9.8 -456.31,0.85l-3.57 -11.52c-18.68,-8.74 -21.19,-10.89 -36.39,-24.95z"/>
  <path class="fil2" d="M12844.61 17749.45c30.6,2.47 68.17,-13 98.04,-22.28 -20.7,13.5 -45.67,20.19 -50.68,34.82 -391.21,148.43 -794.02,264.1 -1204.3,345.91 -119.98,23.24 -257.06,42.99 -378.95,61.5 -130.61,19.86 -326.02,53.11 -456.47,55.98l-31.77 -1.46c-14.41,-9.73 -10.47,-3.27 -13.62,-18.96 17.66,-17.61 13,-12.55 39.77,-19.19 341.66,-11.42 734.96,-104.37 1071.95,-170.08 36.78,-7.2 100.46,-11.6 132.29,-21.72 202.95,-64.48 411.98,-108.82 612.45,-180.21 54.28,-19.25 127.57,-52.72 181.29,-64.31z"/>
  <path class="fil2" d="M4364.12 14494.63l17.01 4.9c9.54,36.3 1.35,67.23 6.63,103.82 0.13,118.69 -2.39,245.34 2.1,363.5 1.84,48.43 21.77,140.73 31.53,190.25 61.55,322.2 184.41,629.57 361.9,905.4 28.48,43.61 66.36,87.72 98.74,129.39 41.23,53.05 81.67,140.24 128.56,186.28l-22.5 6.24c-168.29,-235.24 -299.67,-392.04 -422.2,-666.06 -190.94,-427.06 -228.66,-759.75 -201.77,-1223.72z"/>
  <path class="fil5" d="M12888.54 11782.52c60.86,22.9 129.15,44.45 188.04,68.28 429.36,173.07 836.09,397.47 1211.5,668.29 109.13,78.87 184.27,129.24 281.47,224.5 76.39,74.9 162.12,116.37 232.37,208.64 -9.28,14.54 -15.53,23.95 -26.38,37.36 -14.17,-10.88 -5.35,-56.56 -22.16,-71.71 -509.74,-458.99 -1248.79,-908.39 -1889.2,-1115.05l24.36 -20.31z"/>
  <path class="fil6" d="M15454.36 15552.97l25.82 16.09c-62.44,148.33 -124.82,291.46 -211.95,427.84 -83.08,130.05 -174.6,262.68 -271.97,382.23 -41.4,50.43 -93.54,92.62 -139.38,138.15l-10.97 -14.32c144.22,-141.77 225.28,-253.62 329.84,-429.26 101.7,-170.88 214.26,-327.66 278.61,-520.73z"/>
  <path class="fil4" d="M15584.3 14351.14c11.64,66.99 42.3,198.23 40.83,257.94 -3.54,142.54 17.67,437.43 -37.69,562.14l-10.57 4.93 -6.3 31.01 -4.95 -3.83 4.39 -1.37 -1.58 3.81c-3.88,-7.07 -7.59,-13.61 -11.02,-20.98 9,-152.93 28.96,-301.42 38.64,-453.37 5.23,-82.29 -36.45,-193.36 -31.78,-272.71 7.7,-20.19 7.43,-56.6 9.22,-80.32 9.74,-12.5 9.68,-11.64 10.81,-27.25z"/>
  <path class="fil2" d="M8531.57 11399.78c148.88,-33.92 330.49,-50.74 482.8,-64.6 59.3,-5.39 125.09,-21.85 183.97,-25.05 85.67,-4.65 165.94,-5.67 251.92,-13.81 15.2,14.06 17.71,16.21 36.39,24.95l3.57 11.52c-61.36,0.75 -133.43,-1.27 -193.7,4.12 -232.2,20.76 -467.89,58.47 -699.39,79.64 -31.93,-10.69 -29.96,5.52 -65.56,-16.77z"/>
  <path class="fil7" d="M5037.51 13106.16l11.06 20.37c-33.13,39.42 -67.5,79.28 -97.36,121.13 -21.6,30.26 -43,74.11 -64.21,102.07 -103.96,136.97 -199.11,282.21 -277.11,435.64 -35.37,69.58 -50.06,132.53 -85.31,198.65 -9.32,4.27 -12.56,6.51 -19.55,14.01 0.12,-4.46 -0.98,-7.91 -2.27,-12.16 3.67,-5.72 7.15,-11.56 10.42,-17.51 10.31,-18.97 22.85,-44.68 16.64,-65.86 41.71,-143.47 149.93,-286.96 220.41,-416 83.79,-153.44 171.8,-248.93 287.28,-380.34z"/>
  <path class="fil8" d="M13914.59 17233.85c33.63,-23.36 84.59,-45.46 113.9,-66.96 75.26,-55.13 166.56,-109.43 239.57,-163.5 100.23,-74.27 206.49,-169.64 311.45,-237.09l17.66 11.44c-122.56,110.7 -263.3,199.38 -386.26,312.07 -19.24,17.61 -199.24,133.18 -215.44,136.78 -33.07,-8.44 -33.69,21.15 -80.88,7.26z"/>
  <path class="fil9" d="M6503.31 12031.3l11.31 23.13c-105.63,60.47 -216.87,103.05 -321.33,163.81 -151.03,87.86 -272.26,185.79 -423.09,274.72l-23.16 -16.36c84.11,-81.54 193.55,-128.91 290.16,-187.93 152.28,-93.03 300.89,-187.44 466.11,-257.37z"/>
  <path class="fil5" d="M6503.31 12031.3c238.78,-122.31 483.16,-215.42 735.8,-304.34 78.08,-27.48 157.59,-47.82 237.57,-76.65l20.72 20.49c-141.49,35.97 -276.12,89.92 -414.4,136.18 -189.99,63.56 -392.28,151.79 -568.38,247.45l-11.31 -23.13z"/>
  <path class="fil7" d="M13914.59 17233.85c47.19,13.89 47.81,-15.7 80.88,-7.26 -180.28,99.08 -347.73,217.79 -537.4,299.71 -28.41,12.27 -82.63,41.3 -109.8,49.29l-2.36 -5.12c15.35,-21.83 41.79,-11.64 70.36,-44.95 -15.24,2.3 -25.98,6.24 -39.99,-1.58 52.03,-27.29 141.07,-51.93 182.92,-78.32 112.5,-70.83 247.73,-138.35 355.39,-211.77z"/>
  <path class="fil4" d="M12844.61 17749.45c128.02,-61.27 272.31,-86.82 395.88,-159.12 39.38,-23.01 93.71,-47.43 135.79,-66.39 14.01,7.82 24.75,3.88 39.99,1.58 -28.57,33.31 -55.01,23.12 -70.36,44.95l2.36 5.12c-70.65,40.73 -380.93,172.23 -456.3,186.4 5.01,-14.63 29.98,-21.32 50.68,-34.82 -29.87,9.28 -67.44,24.75 -98.04,22.28z"/>
  <path class="fil2" d="M4529.82 13902.5c6.21,21.18 -6.33,46.89 -16.64,65.86 -3.27,5.95 -6.75,11.79 -10.42,17.51 1.29,4.25 2.39,7.7 2.27,12.16 6.99,-7.5 10.23,-9.74 19.55,-14.01 -37.38,130.01 -79.99,254.96 -103.37,388.62 -8.21,46.99 -24.13,93.27 -30.11,140.73 -3.71,29.41 -0.82,60.82 -3.34,89.98 -5.28,-36.59 2.91,-67.52 -6.63,-103.82l-17.01 -4.9c1.48,-86.95 123.08,-505.75 165.7,-592.13z"/>
  <path class="fil2" d="M14820.65 12976.34c47.76,55.1 116.72,117.71 156.43,174.61 83.87,120.04 177.75,234.76 261,354.26 -3.49,13.06 -4.67,22.91 -13.61,32.85 -86.34,-131.92 -187.32,-264.69 -280.29,-392.56 -30.32,-41.75 -91.13,-75.62 -121.39,-119.09 -11.42,-16.48 -5.96,-32.19 -2.14,-50.07z"/>
  <path class="fil10" d="M7476.68 11650.31c89.72,-33.06 185.23,-60.1 277.62,-85.01 62.16,-16.76 124.41,-27.79 185.85,-48.12l26.97 26.72c-58.95,15.81 -113.36,31.35 -173.12,44.2 -100.28,21.56 -196.6,57.65 -296.6,82.7l-20.72 -20.49z"/>
  <path class="fil5" d="M11216.25 11365.42c64.4,5.14 136.85,20.35 201.59,30.29 116.1,17.83 259.15,37.26 372.32,67.78l-5.23 11.79c-21.99,3.26 -36.06,3.55 -58.11,4.12 -18.62,-2.6 -39.2,-6.66 -57.43,-11.29 -130.16,-33.09 -261.95,-45.84 -394.53,-67.04 -17.78,-8.12 -23.29,-1.7 -36.73,-10.62l3.26 -5.32 13.22 3.63 2.98 -8.57c-20.93,-2.84 -23.79,-3.22 -41.34,-14.77z"/>
  <path class="fil2" d="M5747.04 12476.6l23.16 16.36c-118,90.07 -313.33,238.26 -424.18,337.27l-24.54 -9.75c65.33,-66.59 178.22,-145.39 253.18,-205.98 56.43,-45.6 113.4,-96.7 172.38,-137.9z"/>
  <path class="fil11" d="M15443.84 13903.82c66.15,119.84 101.19,313.34 140.46,447.32 -1.13,15.61 -1.07,14.75 -10.81,27.25 -1.79,23.72 -1.52,60.13 -9.22,80.32 -5.29,-212.26 -73.41,-339.03 -137.98,-530.13l15.3 -2 2.25 -22.76z"/>
  <path class="fil2" d="M15224.47 13538.06c8.94,-9.94 10.12,-19.79 13.61,-32.85 81.62,114.9 121.22,190.64 173.3,321.67 5.63,14.16 30.1,65.53 32.46,76.94l-2.25 22.76 -15.3 2c-30.04,-45.01 -64.69,-169.35 -92.25,-219.79 -29.42,-53.83 -75.49,-117.84 -109.57,-170.73z"/>
  <path class="fil12" d="M5037.51 13106.16c24.04,-50.08 230.48,-240.1 283.97,-285.68l24.54 9.75c-33.43,30.14 -92.14,80.95 -120.47,112.89 -58.78,66.28 -100.4,131.95 -176.98,183.41l-11.06 -20.37z"/>
  <path class="fil10" d="M8177.4 11464.08c56.03,-16.03 290.24,-55.89 354.17,-64.3 35.6,22.29 33.63,6.08 65.56,16.77 -73.38,20.27 -114.26,25.48 -187.21,37.86 -66.83,11.34 -166.06,6.31 -217.87,33.4l-14.65 -23.73z"/>
  <path class="fil13" d="M4988.09 16384.41l22.5 -6.24c69.35,61.58 203.29,194.82 254.42,268.77 -17.96,-0.85 -38.84,-41.78 -72.5,-62.13 3.13,21.06 33.34,35.01 43.31,69.06 -54.11,-44.75 -207.28,-211.58 -247.73,-269.46z"/>
  <path class="fil2" d="M15557.41 15184.79c3.43,7.37 7.14,13.91 11.02,20.98l1.58 -3.81 -4.39 1.37 4.95 3.83 6.3 -31.01 10.57 -4.93c-9.05,88.75 -74.24,309.46 -107.26,397.84l-25.82 -16.09c42.02,-115.67 84.32,-247.67 103.05,-368.18z"/>
  <path class="fil14" d="M12340.96 11598.41c59.28,21.9 321.01,97.3 351.67,115.35 15.58,14.66 23.28,18.95 42.12,27.92l0.23 3.53 -10.24 -7.72 -5.34 5.57 -30.32 -7.91c-84.88,-34.99 -263.75,-88.16 -353.25,-112.65l5.13 -24.09z"/>
  <path class="fil15" d="M7940.15 11517.18c76.51,-19.43 159.35,-34.94 237.25,-53.1l14.65 23.73c-75.89,32.5 -144.1,41.76 -224.93,56.09l-26.97 -26.72z"/>
  <path class="fil5" d="M8522.12 18115.95c70.43,8.38 183.17,32.18 243.87,36.4l19.66 9.34 0.98 7.82c-18.1,4.9 -23.12,5.12 -41.95,5.85 -31.39,-2.13 -265.66,-37.36 -290.28,-43.94l4.33 -4.27 4.73 0c28.32,0.11 32.64,6.19 58.66,-11.2z"/>
  <path class="fil14" d="M14845.91 16502.96l10.97 14.32c-69.87,78.97 -181.63,181.1 -259.71,260.46l-17.66 -11.44c79.99,-63.24 187.14,-186.92 266.4,-263.34z"/>
  <path class="fil10" d="M12143.52 11548.52c64.91,12.47 147.48,41.27 197.44,49.89l-5.13 24.09c-71.26,-7.35 -141.52,-31.76 -209.64,-53.79 15.92,-9.21 10.19,-2.81 17.33,-20.19z"/>
  <path class="fil10" d="M11790.16 11463.49c50.51,6.86 125.55,28.13 178.19,39.5 -10.79,10.03 -11.97,10.36 -15.63,24.08 -96.13,-9.26 -137.64,-31.71 -225.9,-47.67 22.05,-0.57 36.12,-0.86 58.11,-4.12l5.23 -11.79z"/>
  <path class="fil2" d="M12692.63 11713.76c69.29,21.97 128.24,43.2 195.91,68.76l-24.36 20.31c-52.92,-25.47 -111.99,-22.59 -175.1,-67.68l30.32 7.91 5.34 -5.57 10.24 7.72 -0.23 -3.53c-18.84,-8.97 -26.54,-13.26 -42.12,-27.92z"/>
  <path class="fil5" d="M11968.35 11502.99c47.93,12.23 131.35,30.32 175.17,45.53 -7.14,17.38 -1.41,10.98 -17.33,20.19 -59.51,-22.24 -111.32,-30.23 -173.47,-41.64 3.66,-13.72 4.84,-14.05 15.63,-24.08z"/>
  <path class="fil0" d="M8851.88 17707.59c-17.31,-0.06 -94.5,-14.58 -117.75,-18.57 -122.05,-20.82 -243.53,-44.9 -364.3,-72.19 -860.03,-186.45 -1720.43,-539.34 -2380.92,-1126.9 -424.96,-387.36 -789.47,-907.26 -854.49,-1490.55 -82.95,-744.12 246.48,-1344.16 759.2,-1853.92 71.85,-71.44 123.56,-100.45 192.95,-183.19 30.18,119.81 65.66,209.71 126.5,316.31 26.66,29.45 58.01,86.32 82.14,121.19 101.38,147.55 217.63,275.02 366.69,374.86 38.76,25.96 76.81,70.22 117.38,96.44 170.24,110 361.34,225.3 543.69,312.07 158.44,75.4 337.3,128.38 500.73,192.59 83.92,29.82 175.36,46.92 261.01,71.71 100.49,27.96 227.3,71.39 330.8,82.99 16.35,-9.33 18.26,-9 37.33,-11.84 41.32,18.44 29.31,110.81 27.51,151.98l2.08 11.89c-2.9,166.07 5.52,373.03 -1.71,534.4 11.4,116.73 30.32,233.44 42.2,350.22 11.57,113.65 42.74,224.62 63.3,335.99 23.76,104.5 59.1,207.66 84.81,313.57 38,155.02 89.07,269.98 150.98,416.08 67.97,150.26 258.77,484.38 373.43,606.92 69.58,57.11 116.24,112.02 181.09,171.78 27.21,25.09 68.62,37.24 99.83,64.64 171.58,121.76 356.16,175.6 566.02,166.76 156.65,-6.58 388.34,-84.5 495.5,-199.22 21.2,-30.95 82.12,-73.65 117.62,-85.47 38.75,-28.81 92.81,-82.71 136.57,-118.1 52.87,-55.08 108.5,-157.7 150.64,-225.61 22.16,-35.62 90.05,-124.97 102.65,-151.35 98.89,-207.2 210.66,-451.5 274.89,-670.54 35.55,-121.27 64.8,-256.27 97.82,-378.95 7.65,-41.13 14.01,-82.48 19.01,-124 12.15,-114.33 43.76,-196.52 40.28,-319.55 -1.63,-59.15 22.72,-156.28 24.29,-223.37 4.28,-182.88 5.91,-365.48 5.91,-548.37l16.59 -6.85c7.43,-20.04 8.27,-36.02 31.84,-33.62 38.14,1.77 55.97,-4.02 92.42,-14.64 -18.51,-21.21 -8.83,-14.8 -38.14,-22.64 492.52,-100.32 1021.89,-303.8 1460.35,-550.09 88.42,-49.67 207.84,-176.48 303.13,-217.83l3.37 -1.78c12.88,-17.85 13.61,-50.28 16.2,-73.59 18.96,27.09 25.09,43.01 54.85,54.95 0.67,-18.57 -2.14,-23.8 6.91,-37.93l26.67 -4.23c-22.44,-4.94 -26.22,-1.41 -36.9,-16.56l3.94 -9.95c50.62,-19.47 108.44,-97.52 147.48,-142.34 43.43,-76.47 118.97,-133.25 152.94,-216.1 6.98,-17.06 22.89,-42.34 32.29,-58.87 41.57,-91.46 81.73,-183.71 110.19,-280.35 50.07,55.04 105.3,100.73 159.81,150.82 94.44,86.79 184.89,188.35 269.72,284.73 373.1,420.29 564.57,971.27 532.51,1532.41 -18.74,397.81 -247.28,852.06 -495.79,1160.71 -360.5,447.75 -836.82,797.11 -1356.51,1041.69 -57.31,27 -111.15,64.87 -169.48,90.3 -301.38,114.05 -601.92,243.12 -917.87,311.93 -93.88,20.48 -357.69,108.08 -444.26,107.18 -91.69,16.2 -278.32,62.85 -359.21,62.51 -256.78,28.58 -494.09,70.89 -755.43,72.69 -494.43,3.38 -1015.11,15.92 -1503.3,-73.25z"/>
  <path class="fil0" d="M13781.5 13246.22c3.82,4.33 18.73,21.63 22.22,24.18 339.97,306.84 632.47,902.67 645.18,1366.5 33.8,1231.98 -1066.26,2035.33 -2099.34,2438.34 -600.52,234.22 -1065.31,308.83 -1688.72,395.82 -68.79,17.38 -71.95,13.33 -122.96,-27.46 21.2,-30.95 82.12,-73.65 117.62,-85.47 38.75,-28.81 92.81,-82.71 136.57,-118.1 52.87,-55.08 108.5,-157.7 150.64,-225.61 22.16,-35.62 90.05,-124.97 102.65,-151.35 98.89,-207.2 210.66,-451.5 274.89,-670.54 35.55,-121.27 64.8,-256.27 97.82,-378.95 7.65,-41.13 14.01,-82.48 19.01,-124 12.15,-114.33 43.76,-196.52 40.28,-319.55 -1.63,-59.15 22.72,-156.28 24.29,-223.37 4.28,-182.88 5.91,-365.48 5.91,-548.37l16.59 -6.85c7.43,-20.04 8.27,-36.02 31.84,-33.62 38.14,1.77 55.97,-4.02 92.42,-14.64 -18.51,-21.21 -8.83,-14.8 -38.14,-22.64 492.52,-100.32 1021.89,-303.8 1460.35,-550.09 88.42,-49.67 207.84,-176.48 303.13,-217.83l3.37 -1.78c12.88,-17.85 13.61,-50.28 16.2,-73.59 18.96,27.09 25.09,43.01 54.85,54.95 0.67,-18.57 -2.14,-23.8 6.91,-37.93l26.67 -4.23c-22.44,-4.94 -26.22,-1.41 -36.9,-16.56l3.94 -9.95c50.62,-19.47 108.44,-97.52 147.48,-142.34 43.43,-76.47 118.97,-133.25 152.94,-216.1 6.98,-17.06 22.89,-42.34 32.29,-58.87z"/>
  <path class="fil7" d="M13373.75 13752.62l3.37 28.97c-387.78,305.37 -830.63,507.9 -1300.71,646.77 -139.61,41.25 -283.78,91.08 -428,114.82 -18.51,-21.21 -8.83,-14.8 -38.14,-22.64 492.52,-100.32 1021.89,-303.8 1460.35,-550.09 88.42,-49.67 207.84,-176.48 303.13,-217.83z"/>
  <path class="fil16" d="M11418.07 15813.58l14.57 -27.54 4.22 2.6c-4.56,29.52 -11.48,57.03 -8.89,86.25 -35.44,125.19 -61.99,250.67 -99.62,375.97 -81.73,273.15 -201.59,533.38 -356.06,773.01 -61.82,96.6 -88.65,158.33 -177.75,233.72l-2.47 -17.56c52.87,-55.08 108.5,-157.7 150.64,-225.61 22.16,-35.62 90.05,-124.97 102.65,-151.35 98.89,-207.2 210.66,-451.5 274.89,-670.54 35.55,-121.27 64.8,-256.27 97.82,-378.95z"/>
  <path class="fil2" d="M11507.56 14598.29l16.59 -6.85c7.43,-20.04 8.27,-36.02 31.84,-33.62 -13.89,19.57 -10.46,223.46 -11.02,269.17 -3.43,289.14 -24.19,606.68 -79.6,891.42l-28.29 -28.83c12.15,-114.33 43.76,-196.52 40.28,-319.55 -1.63,-59.15 22.72,-156.28 24.29,-223.37 4.28,-182.88 5.91,-365.48 5.91,-548.37z"/>
  <path class="fil17" d="M13781.5 13246.22c3.82,4.33 18.73,21.63 22.22,24.18 -20.81,20.31 -57.88,91.44 -77.12,121.57 -40.44,63.24 -68.12,98.17 -119.14,152.8l-11.19 -23.58c43.43,-76.47 118.97,-133.25 152.94,-216.1 6.98,-17.06 22.89,-42.34 32.29,-58.87z"/>
  <path class="fil13" d="M10537.88 17443.6c21.2,-30.95 82.12,-73.65 117.62,-85.47 21.15,6.14 25.42,3.55 46.23,-4.72 -43.31,52.32 -71.21,80.73 -131.51,115.34l90.62 2.31c-68.79,17.38 -71.95,13.33 -122.96,-27.46z"/>
  <path class="fil7" d="M13481.75 13690.04c-22.44,-4.94 -26.22,-1.41 -36.9,-16.56l3.94 -9.95c50.62,-19.47 108.44,-97.52 147.48,-142.34l11.19 23.58c-41.9,43.33 -89.15,116.59 -125.71,145.27z"/>
  <path class="fil4" d="M11437.08 15689.58l28.29 28.83c-8.88,45.15 -20.92,114.77 -37.4,156.48 -2.59,-29.22 4.33,-56.73 8.89,-86.25l-4.22 -2.6 -14.57 27.54c7.65,-41.13 14.01,-82.48 19.01,-124z"/>
  <path class="fil18" d="M10792.07 17240.03l2.47 17.56c-35.94,33.47 -60.01,59.07 -92.81,95.82 -20.81,8.27 -25.08,10.86 -46.23,4.72 38.75,-28.81 92.81,-82.71 136.57,-118.1z"/>
  <path class="fil13" d="M13393.32 13677.25c18.96,27.09 25.09,43.01 54.85,54.95l-71.05 49.39 -3.37 -28.97 3.37 -1.78c12.88,-17.85 13.61,-50.28 16.2,-73.59z"/>
  <path class="fil18" d="M8851.88 17707.59c-17.31,-0.06 -94.5,-14.58 -117.75,-18.57 -122.05,-20.82 -243.53,-44.9 -364.3,-72.19 -860.03,-186.45 -1720.43,-539.34 -2380.92,-1126.9 -424.96,-387.36 -789.47,-907.26 -854.49,-1490.55 -82.95,-744.12 246.48,-1344.16 759.2,-1853.92 71.85,-71.44 123.56,-100.45 192.95,-183.19 30.18,119.81 65.66,209.71 126.5,316.31 -7.85,6.14 -19.92,16.23 -28.05,20.85 -13.9,-13.28 -13.88,-18.27 -29.35,-18.6 -42.72,35.31 -98.26,105.51 -134.53,151.19 -218.56,275.11 -379.62,575.84 -451.27,921.17 -187.19,902.22 326.26,1669.34 1041.66,2183.14 123.57,90.1 251.88,173.52 384.38,249.9 39.99,22.55 83.39,42.97 124.46,63.45 163.06,81.07 326.8,168.11 499.81,226.18 25.34,8.49 51.01,17.16 76.11,26.44 512.83,193.32 1049.46,316.26 1595.29,365.55 34.43,3.09 66.1,3.65 100.59,3.26 43.24,7.31 45.35,15.92 84.19,4.95 171.58,121.76 356.16,175.6 566.02,166.76 156.65,-6.58 388.34,-84.5 495.5,-199.22 51.01,40.79 54.17,44.84 122.96,27.46 623.41,-86.99 1088.2,-161.6 1688.72,-395.82 1033.08,-403.01 2133.14,-1206.36 2099.34,-2438.34 -12.71,-463.83 -305.21,-1059.66 -645.18,-1366.5 -3.49,-2.55 -18.4,-19.85 -22.22,-24.18 41.57,-91.46 81.73,-183.71 110.19,-280.35 50.07,55.04 105.3,100.73 159.81,150.82 94.44,86.79 184.89,188.35 269.72,284.73 373.1,420.29 564.57,971.27 532.51,1532.41 -18.74,397.81 -247.28,852.06 -495.79,1160.71 -360.5,447.75 -836.82,797.11 -1356.51,1041.69 -57.31,27 -111.15,64.87 -169.48,90.3 -301.38,114.05 -601.92,243.12 -917.87,311.93 -93.88,20.48 -357.69,108.08 -444.26,107.18 -91.69,16.2 -278.32,62.85 -359.21,62.51 -256.78,28.58 -494.09,70.89 -755.43,72.69 -494.43,3.38 -1015.11,15.92 -1503.3,-73.25z"/>
  <path class="fil2" d="M9422.97 17730.15l-45.93 11.3 35.8 3.94 -0.49 7.82 0.92 -7.64 1.71 13.27c33.69,16.15 975.41,16.04 1079.59,7.26 42.86,-3.6 157.1,-15.42 209.58,-22.62 25.37,-3.48 73.86,-4.05 99.22,-6.69 -60.01,-8.55 -450.61,-2.98 -463.55,-12.49 23.63,-8.05 175.78,-7.93 217.07,-11.76l-64.13 0.73c3.66,-0.84 50.74,-0.4 55.24,0.05 97.2,9.29 228.94,-31.84 321.41,-17.88 50.91,23.17 179.49,4.44 241.2,12.71 -256.78,28.58 -494.09,70.89 -755.43,72.69 -494.43,3.38 -1015.11,15.92 -1503.3,-73.25 58.35,-3.21 110.8,3.65 168.29,4.84 109.06,28.91 290.65,6.35 402.8,17.72z"/>
  <path class="fil7" d="M10869.41 17695.44c21.15,-0.29 38.59,-5.35 57.43,-1.69 -11.76,-3.72 -7.37,-0.34 -14.12,-9.91l13.28 -17.61c202.1,-26.27 340.59,-34.09 543.82,-20.59 -91.69,16.2 -278.32,62.85 -359.21,62.51 -61.71,-8.27 -190.29,10.46 -241.2,-12.71z"/>
  <path class="fil7" d="M9496.27 17682.77l6.28 0.29c41.65,1.63 89.04,-9.96 120.35,-6.92 -21.49,7.7 -29.53,16.31 -45.8,31.28 -40.25,5.9 -19.89,-20.76 -53.96,-4.11l-3.99 11.09c11.41,9.84 26.4,8.55 42.45,9.84 -12.57,9.73 -116.78,6.07 -138.63,5.91 -112.15,-11.37 -293.74,11.19 -402.8,-17.72 20.56,-3.27 26.66,-3.49 44.92,-14.3 94.76,-21.09 138.41,5.24 229.27,11.31 41.85,2.76 156.06,-16.59 201.91,-26.67z"/>
  <path class="fil19" d="M9065.09 17698.13c76.84,-47.15 250.59,-5.96 339.2,-7.25 21.47,-0.29 45.05,-43.55 76.66,-43.21 13.64,9.45 10.81,14.9 15.32,35.1 -45.85,10.08 -160.06,29.43 -201.91,26.67 -90.86,-6.07 -134.51,-32.4 -229.27,-11.31z"/>
  <path class="fil20" d="M6213.07 13278.58c26.66,29.45 58.01,86.32 82.14,121.19 101.38,147.55 217.63,275.02 366.69,374.86 38.76,25.96 76.81,70.22 117.38,96.44 170.24,110 361.34,225.3 543.69,312.07 158.44,75.4 337.3,128.38 500.73,192.59 83.92,29.82 175.36,46.92 261.01,71.71 100.49,27.96 227.3,71.39 330.8,82.99l5.89 9.64 -3.07 8.04c-18.85,4.78 -26.31,4.08 -45.47,3.82 -97.53,-26.9 -203.13,-42.97 -302.84,-71.49 -588.18,-168.2 -1163.23,-417.47 -1618.08,-835.97 -43.57,-40.09 -254.39,-297.02 -266.92,-345.04 8.13,-4.62 20.2,-14.71 28.05,-20.85z"/>
  <path class="fil4" d="M8415.51 14530.43c16.35,-9.33 18.26,-9 37.33,-11.84 41.32,18.44 29.31,110.81 27.51,151.98l2.08 11.89c-2.9,166.07 5.52,373.03 -1.71,534.4 -5.88,-38.58 -6.92,-182.14 -8.21,-226.26 -21.75,91.52 -17.86,129 -20.35,220.82 -1.56,-104.67 -25.67,-194.85 -30.59,-303.35 -4.92,-108.55 10.86,-240.84 -3.32,-341.64 -12.18,-10.57 -27.49,-10.67 -45.39,-14.5 19.16,0.26 26.62,0.96 45.47,-3.82l3.07 -8.04 -5.89 -9.64z"/>
  <path class="fil21" d="M8452.16 15211.42c2.49,-91.82 -1.4,-129.3 20.35,-220.82 1.29,44.12 2.33,187.68 8.21,226.26 11.4,116.73 30.32,233.44 42.2,350.22 11.57,113.65 42.74,224.62 63.3,335.99l-8.86 7.93c-20.46,-10.67 -4.42,-28.39 -29.76,-51.24 -38.44,-76.14 -97.64,-546.29 -95.44,-648.34z"/>
  <path class="fil2" d="M8547.6 15859.76c25.34,22.85 9.3,40.57 29.76,51.24l8.86 -7.93c23.76,104.5 59.1,207.66 84.81,313.57 38,155.02 89.07,269.98 150.98,416.08 -5.93,9.14 -11.75,18.35 -17.48,27.62 -67.14,-140.44 -118.6,-295.5 -164.58,-443.83 -3.19,-24.93 -35.08,-130.83 -43.83,-160.22 -21.14,-70.94 -33.31,-124.4 -48.52,-196.53z"/>
  <path class="fil22" d="M8822.01 16632.72c67.97,150.26 258.77,484.38 373.43,606.92l-13.94 16.71c-126.74,-119.95 -306.68,-435.93 -376.97,-596.01 5.73,-9.27 11.55,-18.48 17.48,-27.62z"/>
  <path class="fil4" d="M9195.44 17239.64c69.58,57.11 116.24,112.02 181.09,171.78 27.21,25.09 68.62,37.24 99.83,64.64 -38.84,10.97 -40.95,2.36 -84.19,-4.95 -4.07,-20.31 -123.5,-139.82 -141.36,-143.13l-14.09 21.32 -7.1 -1.07c-6.88,-13.96 -2.75,-36.96 -1.93,-54.97l-46.19 -36.91 13.94 -16.71z"/>
  <path class="fil23" d="M6924.34 13297.22c-160.99,-211.13 -172.73,-477.85 3.12,-685.23 245.76,-289.84 664.47,-465.92 1019.72,-579.43 187.12,-59.79 386.71,-99.12 576.61,-136.38 607.4,-117.91 1227,-160.65 1844.84,-127.24 148.66,6.57 286.47,4.33 434.01,31.83 58.56,8.01 123.41,4.82 181.24,14.39 578.86,95.85 1161.66,186.21 1680.45,480.42 326.02,192.05 666.11,513.66 452.64,919.16 -37.52,71.34 -114.92,136.37 -174.49,190.62 -347.34,316.57 -831.59,470.84 -1281.81,572.48 -68.85,15.54 -136.23,31.87 -204.52,49.46 -15.92,-81.02 -12.49,-165.64 -26.66,-241.11 -28.24,-150.15 -72.17,-307.77 -112.33,-455.8 -23.46,-100.34 -78.36,-197.49 -111.71,-291.8 -136.86,-387.22 -366.52,-742.45 -706.05,-981.06 -37.46,-26.34 -106.14,-56.12 -150.46,-79.75 -147.21,-75.17 -311.29,-79.32 -473.06,-64.25 -79.81,7.43 -164.76,37.99 -241.74,62.06 -152.59,60.59 -318.95,207.12 -433.01,324.72 -73.33,119.74 -144.93,193.31 -219.56,300.26 -164.82,308.77 -301.78,609.57 -372.92,952.77 -11.78,56.87 -34.81,115.11 -47.47,172.2 -21.21,90.56 -18.78,186.67 -44.47,279.03l-3.12 11.49 -8.99 4.52c-30.57,-11.74 -71.78,-16.64 -104.44,-25.16 -83.1,-21.69 -181.1,-37.05 -262.76,-58.16 -341.68,-88.38 -841.63,-267.23 -1091.13,-523.99 -69.18,-1.81 -102.9,-56.68 -121.93,-116.05z"/>
  <path class="fil0" d="M9467.4 11943.29c43.7,1.66 100.05,-1.57 138.75,15.9l27.99 16.4c-152.59,60.59 -318.95,207.12 -433.01,324.72 -73.33,119.74 -144.93,193.31 -219.56,300.26 -164.82,308.77 -301.78,609.57 -372.92,952.77 -11.78,56.87 -34.81,115.11 -47.47,172.2 -21.21,90.56 -18.78,186.67 -44.47,279.03 -4.51,-34.21 -12.9,-13.55 -29.44,-47.59 -20.61,-8.47 -90.4,-24.53 -117.57,-32.15l-234.69 -67.54c-269.24,-75.21 -616.08,-219.42 -827.69,-402.77 -380.34,-328.79 -264.89,-718.75 125.55,-960.56 570.19,-353.14 1372.09,-500.94 2034.53,-550.67z"/>
  <path class="fil2" d="M8968.2 12581.73l13.37 18.84c-164.82,308.77 -301.78,609.57 -372.92,952.77 -11.78,56.87 -34.81,115.11 -47.47,172.2 -21.21,90.56 -18.78,186.67 -44.47,279.03 -4.51,-34.21 -12.9,-13.55 -29.44,-47.59 13.7,-16.72 37.39,-160.3 42.7,-189.49 48.66,-267.51 124.13,-520.7 225.7,-772.58 56.05,-139 136.15,-283.05 212.53,-413.18z"/>
  <path class="fil24" d="M9606.15 11959.19l27.99 16.4c-152.59,60.59 -318.95,207.12 -433.01,324.72l-7.56 -27.12c110.18,-123.58 253.05,-259.43 412.58,-314z"/>
  <path class="fil7" d="M9193.57 12273.19l7.56 27.12c-73.33,119.74 -144.93,193.31 -219.56,300.26l-13.37 -18.84c18.5,-47.9 187.9,-268.11 225.37,-308.54z"/>
  <path class="fil0" d="M10364.85 11959.84c45.68,-28.16 203.12,-11.22 261.96,-7.12 1.12,0.28 2.25,0.58 3.37,0.85 65.42,15.57 136.97,17.26 203.8,25.23 107.88,12.84 216.16,29.51 323.43,46.9 499.78,81.07 1385.2,286.87 1668.7,742.49 65.69,105.53 96.35,222.01 67.1,345.19 -46.41,195.28 -194.57,338.95 -360.67,440.9 -276.52,169.77 -634.1,306.56 -950.56,378.05 -20.48,-5.43 -33.08,-0.66 -55.86,-9.47 -38.25,-14.8 -48.48,-49.73 -63.67,-83.59 -10.97,-50.98 -18.9,-102.36 -30.21,-153.54 -140.34,-633.9 -441.33,-1429.51 -1067.39,-1725.89z"/>
  <path class="fil2" d="M9467.4 11943.29c66.79,-27.61 54.74,38.63 112.56,-57.63l-6.11 -21.19c35.79,0.5 103.8,66.45 140.32,71.19 11.42,1.48 94.78,-25.7 111.64,-30.9l0.65 -3 -78.33 -11.62c77.49,-7.33 774.22,-8.3 802.69,3.63 -61.37,7.98 -326.42,-19.22 -368.61,2.64 9.11,20.26 134.5,55.39 161.49,62.15 14.69,-15.12 17.55,-24.06 40.39,-24.72 45.45,-1.32 214.09,-9.25 242.72,18.88 -58.84,-4.1 -216.28,-21.04 -261.96,7.12l-15.91 17.94c-147.21,-75.17 -311.29,-79.32 -473.06,-64.25 -79.81,7.43 -164.76,37.99 -241.74,62.06l-27.99 -16.4c-38.7,-17.47 -95.05,-14.24 -138.75,-15.9z"/>
  <path class="fil25" d="M6924.34 13297.22c45.28,35.74 88.95,68.02 121.93,116.05 -69.18,-1.81 -102.9,-56.68 -121.93,-116.05z"/>
  <path class="fil26" d="M11462.45 13839.27c15.19,33.86 25.42,68.79 63.67,83.59 22.78,8.81 35.38,4.04 55.86,9.47 -34.31,9.61 -78.69,16.6 -114.41,23.23 -2.48,-37.8 -3.49,-78.24 -5.12,-116.29z"/>
  <path class="fil19" d="M6950.64 12777.12c8.17,6.67 26.14,39.19 32.73,50.29 -3.94,21.18 -5.33,44.57 -20.89,58.52 -18.68,-1.37 -28.28,-0.54 -43.77,-11.73 -13.81,-31.91 13.43,-48.45 29.92,-91.71l2.01 -5.37z"/>
  <path class="fil0" d="M10639.58 14662.82c33.24,-4.44 103.16,1.83 130.1,-7.7 40.78,-14.4 60.25,-52.71 118.07,-27.6l5.46 0.86c31.49,4.76 49.94,-5.49 65.64,3.32 29.42,50.5 -10.13,700.36 -36.51,794.15 -22.5,80.09 -52.82,309.68 -75.54,387.77 -110.59,380.12 -281.64,807.3 -635.73,1021.48 -103.78,62.62 -215.55,75.4 -328.89,45.58 -198.08,-52.1 -231.46,-133.35 -361.01,-254.08 -22.07,-15.99 -47.41,-20.29 -73.88,-34.5 -8.28,-17.1 -3.22,-38.8 -11.04,-64.44l-1.9 -6.11c-232.35,-346.86 -330.49,-764.44 -385.67,-1173.11 -21.84,-161.73 -39.06,-288.47 -32.25,-454.32 3.64,-88.61 -7.48,-179.68 -0.62,-270.34 28.9,0.28 77.89,2.17 103.37,14.02 91.95,33.03 240.98,21.13 338.63,31.99 244.52,27.2 486.24,22.95 731.77,21.88 66.82,-0.28 140.34,-16.54 207.45,-21.03 70.2,-6.06 121.67,-7.59 192.54,-7.33l50.01 -0.49z"/>
  <path class="fil27" d="M9015.81 14623.78c28.9,0.28 77.89,2.17 103.37,14.02 1.29,14.25 4.52,41.19 3.81,54.44 -26.93,541.42 117.41,1334.59 462.54,1757.22 302.56,370.51 693.49,223.63 903.81,-139.59 264.65,-457.11 351.89,-958.81 371.02,-1477.71l1.18 -36.04c7.65,-53.7 -8.16,-127.24 9.73,-163.51l16.48 -5.09 5.46 0.86c31.49,4.76 49.94,-5.49 65.64,3.32 29.42,50.5 -10.13,700.36 -36.51,794.15 -22.5,80.09 -52.82,309.68 -75.54,387.77 -110.59,380.12 -281.64,807.3 -635.73,1021.48 -103.78,62.62 -215.55,75.4 -328.89,45.58 -198.08,-52.1 -231.46,-133.35 -361.01,-254.08 -22.07,-15.99 -47.41,-20.29 -73.88,-34.5 -8.28,-17.1 -3.22,-38.8 -11.04,-64.44l-1.9 -6.11c-232.35,-346.86 -330.49,-764.44 -385.67,-1173.11 -21.84,-161.73 -39.06,-288.47 -32.25,-454.32 3.64,-88.61 -7.48,-179.68 -0.62,-270.34z"/>
  <path class="fil25" d="M9434.35 16521.55c26.39,31.15 63.57,72.93 86.82,105.05 -22.07,-15.99 -47.41,-20.29 -73.88,-34.5 -8.28,-17.1 -3.22,-38.8 -11.04,-64.44l-1.9 -6.11z"/>
  <path class="fil4" d="M9119.18 14637.8c91.95,33.03 240.98,21.13 338.63,31.99 244.52,27.2 486.24,22.95 731.77,21.88 66.82,-0.28 140.34,-16.54 207.45,-21.03 70.2,-6.06 121.67,-7.59 192.54,-7.33l3.38 19.66c16.76,9.91 44.38,7.8 67.32,9.52 -75.65,10.41 -187.86,30.24 -263.63,30.74 -360.39,2.33 -725.49,20.19 -1083.63,-26.46 -58.06,-7.56 -131.51,-4.86 -190.02,-4.53 0.71,-13.25 -2.52,-40.19 -3.81,-54.44z"/>
  <path class="fil2" d="M10639.58 14662.82c33.24,-4.44 103.16,1.83 130.1,-7.7 40.78,-14.4 60.25,-52.71 118.07,-27.6l-16.48 5.09c-17.89,36.27 -2.08,109.81 -9.73,163.51 -2.31,-29.91 -1.52,-71.76 -1.86,-102.6l-118.8 -2.08c-23.56,1.64 -56.3,0.88 -80.61,1.05 -22.94,-1.72 -50.56,0.39 -67.32,-9.52l-3.38 -19.66 50.01 -0.49z"/>
  <path class="fil13" d="M10639.58 14662.82c33.24,-4.44 103.16,1.83 130.1,-7.7 40.78,-14.4 60.25,-52.71 118.07,-27.6l-16.48 5.09c-17.89,36.27 -2.08,109.81 -9.73,163.51 -2.31,-29.91 -1.52,-71.76 -1.86,-102.6l-118.8 -2.08c34.03,-6.79 96.47,-5.37 144.06,-13.14 -87.69,-13.83 -155.98,-13.76 -245.36,-15.48z"/>
  <path class="fil28" d="M9946.19 12650.38c205.87,-17.81 423.45,121.32 532.74,290.25 15.92,24.59 31.22,49.46 47.64,73.71 143.83,207.44 249.41,438.88 311.9,683.45 37.75,142.3 50.8,278.8 82.08,415.73 -156.72,3.7 -283.73,23.74 -437.18,38.33 -139.78,13.29 -311.17,3.75 -453.93,1.99 -264.6,0.77 -518.43,10.95 -781.43,-27.36 -55.12,-8.04 -130.94,-5.79 -187.79,-5.73 -1.92,-251.58 215.46,-868.64 362.45,-1090.3 122.84,-185.23 301.15,-334.18 523.52,-380.07z"/>
  <path class="fil0" d="M9935.78 12775.31c7.21,-0.42 14.4,-0.79 21.55,-1.12 162.45,-7.29 251.94,34.71 374.17,141.18 238.21,207.41 456.86,841.85 468.84,1142.68 -214.25,37.76 -524.19,35.18 -753.18,46.53 -291.89,-0.83 -583.6,-14.27 -874.32,-40.26 7.99,-88.23 33.16,-196.55 54.23,-283.14 83.75,-344.02 288.77,-959.59 708.71,-1005.87z"/>
  <path class="fil10" d="M11503.06 14525.48c42.75,2.04 65.14,1.31 107.21,-4.94 29.31,7.84 19.63,1.43 38.14,22.64 -36.45,10.62 -54.28,16.41 -92.42,14.64 -23.57,-2.4 -24.41,13.58 -31.84,33.62l-16.59 6.85c-0.73,-23.24 -2.98,-49.34 -4.5,-72.81z"/>
  <path class="fil29" d="M10839.26 14484.49c13.61,2.79 13.61,4.07 24.02,12.76 7.31,19.71 0.34,34.97 -5.29,56.14 -10.63,-2.43 -12.32,-5.44 -20.53,-12.73 -7.81,-19.69 -2.31,-34.73 1.8,-56.17z"/>
  <path class="fil29" d="M13451.99 13449.66c27.62,8.88 32.74,41.63 37.8,66.85 -14,-0.9 -13.33,-0.59 -25.42,-7.55 -13,-18.17 -11.14,-36.19 -12.38,-59.3z"/>
  <path class="fil29" d="M10470.72 17214.09c24.63,-2.25 45.05,-6.52 64.34,7.38l-1.79 11.87c-23.4,2.53 -48.55,9.22 -66.38,-7.37l3.83 -11.88z"/>
  <path class="fil29" d="M8480.35 14670.57c20.14,-0.95 39.91,-4.39 57.15,4.24 -13.36,8.66 -38.01,7.61 -55.07,7.65l-2.08 -11.89z"/>
 </g>
</svg>
